<svg xmlns="http://www.w3.org/2000/svg" viewBox="505 -5 125 125" width="32" height="32">
<circle cx="564.6" cy="59" r="62" fill="#0a0a0a"/>
<path fill="#EBFF00" d="M564.6,0l-51.3,29.6v59.2l51.3,29.6l51.3-29.6V29.6L564.6,0z M584,61.2c0.6,1.6,1.9,2.9,3.5,3.4c1.1,0.4,1.3,0.2,2.5,0.3
c0.9,0.1,1.7,0.3,2.4,0.6c3.2,1.3,5.4,4.4,5.5,7.8c0.1,3.5-1.9,6.7-5,8.1c-3.2,1.5-6.9,0.9-9.5-1.4c-0.6-0.6-1.2-1.2-1.6-1.9
c-0.5-0.8-0.8-1.3-1.6-1.9c-1.4-1-3.1-1.4-4.8-0.9c-3.5,1-5.1,5-3.3,8.1c1.7,3,1.5,6.7-0.5,9.5c-2,2.8-5.6,4.1-8.9,3.3
c-3.4-0.8-6-3.5-6.7-6.9c-0.3-1.7-0.1-3.4,0.5-5c0.2-0.4,0.4-0.7,0.6-1.1c0.2-0.4,0.4-0.8,0.5-1.2c0.2-0.9,0.3-1.6,0.1-2.5
c-0.7-3.6-4.5-5.5-7.8-4c-0.8,0.4-1.4,0.9-2,1.6c-0.3,0.3-0.5,0.7-0.7,1c-0.2,0.3-0.5,0.7-0.7,1c-1.1,1.3-2.6,2.2-4.3,2.7
c-3.3,0.9-6.9-0.2-9.1-2.9c-2.2-2.7-2.6-6.4-1-9.5c0.8-1.5,2-2.7,3.4-3.6c0.8-0.4,1.5-0.7,2.4-0.9c0.4-0.1,0.8-0.2,1.2-0.2
c0.4,0,0.8,0,1.2-0.1c3.6-0.3,5.9-4,4.7-7.4c-0.6-1.6-1.9-2.9-3.5-3.4c-1.1-0.4-1.3-0.2-2.5-0.3c-0.9-0.1-1.7-0.3-2.4-0.6
c-3.2-1.3-5.4-4.4-5.5-7.8c-0.1-3.5,1.9-6.7,5-8.1c3.2-1.5,6.9-0.9,9.5,1.4c0.6,0.6,1.2,1.2,1.6,1.9c0.5,0.8,0.8,1.3,1.5,1.9
c1.4,1.1,3.2,1.4,4.9,1c3.5-1,5-5,3.3-8.1c-1.7-3-1.5-6.7,0.5-9.5c2.1-2.8,5.6-4.1,8.9-3.3c3.4,0.8,6,3.5,6.6,6.9
c0.3,1.7,0.1,3.4-0.5,5c-0.3,0.7-0.8,1.4-1,2.2c-0.3,0.9-0.3,1.7-0.1,2.6c0.7,3.6,4.6,5.6,7.8,4c0.8-0.4,1.4-0.9,2-1.6
c0.2-0.3,0.4-0.7,0.6-1c0.2-0.3,0.5-0.7,0.7-1c1.1-1.3,2.6-2.2,4.3-2.7c3.3-0.9,6.9,0.2,9.1,2.9c2.2,2.7,2.6,6.4,1,9.5
c-0.8,1.5-2,2.7-3.4,3.6c-0.8,0.4-1.5,0.7-2.4,0.9c-0.4,0.1-0.8,0.2-1.2,0.2c-0.4,0-0.8,0-1.2,0.1C585.1,54.1,582.8,57.7,584,61.2z"/>
</svg>
