<?xml version="1.0" encoding="utf-8"?>
<!-- Generator: Adobe Illustrator 23.0.3, SVG Export Plug-In . SVG Version: 6.00 Build 0)  -->
<svg version="1.1" xmlns="http://www.w3.org/2000/svg" xmlns:xlink="http://www.w3.org/1999/xlink" x="0px" y="0px"
	 viewBox="0 0 615.8 124.4" style="enable-background:new 0 0 615.8 124.4;" xml:space="preserve">
<style type="text/css">
	.st0{fill:#FFFFFF;}
</style>
<g id="Layer_1">
</g>
<g id="Layer_01">
	<g>
		<path class="st0" d="M441.3,106.4c-3.7,0-7.4,0-11.1,0c-0.2,0-0.3,0.1-0.3,0.3c0,5.7,0,11.5,0,17.2c0,0.2,0.1,0.3,0.3,0.3
			c3.7,0,7.4,0,11.1,0c0.2,0,0.3-0.1,0.3-0.3c0-0.7,0-1.5,0-2.2c0-0.2-0.1-0.3-0.3-0.3c-2.7,0-5.4,0-8.2,0c-0.1,0-0.2-0.1-0.2-0.2
			c0-1.5,0-3,0-4.5c0-0.1,0.1-0.2,0.2-0.2c2.3,0,4.6,0,6.9,0c0.2,0,0.3-0.1,0.3-0.3c0-0.7,0-1.5,0-2.2c0-0.2-0.1-0.3-0.3-0.3
			c-2.3,0-4.6,0-6.9,0c-0.1,0-0.2-0.1-0.2-0.2c0-1.4,0-2.9,0-4.3c0-0.1,0.1-0.2,0.2-0.2c2.7,0,5.4,0,8.2,0c0.2,0,0.3-0.1,0.3-0.3
			c0-0.7,0-1.5,0-2.2C441.5,106.4,441.4,106.4,441.3,106.4z"/>
		<path class="st0" d="M414.6,106.4c-0.9,0-1.7,0-2.6,0c-0.2,0-0.3,0.1-0.3,0.3c0,5.7,0,11.5,0,17.2c0,0.2,0.1,0.3,0.3,0.3
			c0.9,0,1.7,0,2.6,0c0.2,0,0.3-0.1,0.3-0.3c0-5.7,0-11.5,0-17.2C414.9,106.4,414.8,106.4,414.6,106.4z"/>
		<path class="st0" d="M396.5,114.4c-2,0-3.9,0-5.9,0c-0.2,0-0.3,0.1-0.3,0.3c0,0.7,0,1.4,0,2.1c0,0.2,0.1,0.3,0.3,0.3
			c1,0,2,0,2.9,0c0.1,0,0.2,0.1,0.2,0.2c0,1-0.1,1.7-0.3,2.3c-0.2,0.7-0.6,1.2-1.3,1.6c-0.6,0.4-1.3,0.6-2.1,0.6
			c-1.7,0-2.8-0.8-3.3-2.3c-0.2-0.6-0.3-2-0.3-4.1c0-2.1,0.1-3.4,0.3-4.1c0.5-1.6,1.7-2.3,3.3-2.3c1.6,0,2.8,0.7,3.6,2.2
			c0.1,0.1,0.2,0.2,0.3,0.1c0.7-0.3,1.5-0.6,2.2-1c0.1-0.1,0.2-0.2,0.1-0.4c-0.4-1.1-1.1-2-2.2-2.7c-1.1-0.7-2.4-1.1-4-1.1
			c-1.6,0-2.9,0.4-4,1.1c-1.1,0.7-1.9,1.8-2.3,3.2c-0.3,0.9-0.5,2.6-0.5,4.9c0,2.3,0.2,3.9,0.5,4.9c0.5,1.4,1.2,2.5,2.3,3.2
			c1.1,0.7,2.4,1.1,4,1.1c1.5,0,2.9-0.4,4-1.1c1.1-0.8,1.9-1.8,2.3-3.2c0.3-0.9,0.4-2.2,0.4-3.9c0-0.5,0-1,0-1.5
			C396.8,114.4,396.7,114.4,396.5,114.4z"/>
		<path class="st0" d="M365.5,107.2c-1.1-0.7-2.4-1.1-4-1.1c-1.6,0-2.9,0.4-4,1.1c-1.1,0.7-1.9,1.8-2.3,3.2
			c-0.3,0.9-0.5,2.6-0.5,4.9c0,2.3,0.2,3.9,0.5,4.9c0.5,1.4,1.2,2.5,2.3,3.2c1.1,0.7,2.4,1.1,4,1.1c1.6,0,2.9-0.4,4-1.1
			c1.1-0.7,1.9-1.8,2.3-3.2c0.3-0.9,0.5-2.6,0.5-4.9c0-2.3-0.2-3.9-0.5-4.9C367.4,109,366.6,107.9,365.5,107.2z M364.9,119.3
			c-0.5,1.5-1.6,2.3-3.3,2.3c-1.7,0-2.8-0.8-3.3-2.3c-0.2-0.6-0.3-2-0.3-4.1c0-2.1,0.1-3.4,0.3-4.1c0.5-1.6,1.6-2.3,3.3-2.3
			c1.7,0,2.8,0.8,3.3,2.3c0.2,0.7,0.3,2,0.3,4.1C365.2,117.3,365.1,118.7,364.9,119.3z"/>
		<path class="st0" d="M339.6,121.4c-2.7,0-5.4,0-8.2,0c-0.1,0-0.2-0.1-0.2-0.2c0-4.9,0-9.7,0-14.6c0-0.2-0.1-0.3-0.3-0.3
			c-0.9,0-1.7,0-2.6,0c-0.2,0-0.3,0.1-0.3,0.3c0,5.7,0,11.5,0,17.2c0,0.2,0.1,0.3,0.3,0.3c3.7,0,7.4,0,11.1,0c0.2,0,0.3-0.1,0.3-0.3
			c0-0.7,0-1.5,0-2.2C339.8,121.4,339.7,121.4,339.6,121.4z"/>
		<path class="st0" d="M310.4,107.2c-1.1-0.7-2.4-1.1-4-1.1c-1.6,0-2.9,0.4-4,1.1c-1.1,0.7-1.9,1.8-2.3,3.2
			c-0.3,0.9-0.5,2.6-0.5,4.9c0,2.3,0.2,3.9,0.5,4.9c0.5,1.4,1.2,2.5,2.3,3.2c1.1,0.7,2.4,1.1,4,1.1c1.6,0,2.9-0.4,4-1.1
			c1.1-0.7,1.9-1.8,2.3-3.2c0.3-0.9,0.5-2.6,0.5-4.9c0-2.3-0.2-3.9-0.5-4.9C312.3,109,311.5,107.9,310.4,107.2z M309.7,119.3
			c-0.5,1.5-1.6,2.3-3.3,2.3c-1.7,0-2.8-0.8-3.3-2.3c-0.2-0.6-0.3-2-0.3-4.1c0-2.1,0.1-3.4,0.3-4.1c0.5-1.6,1.6-2.3,3.3-2.3
			c1.7,0,2.8,0.8,3.3,2.3c0.2,0.7,0.3,2,0.3,4.1C310.1,117.3,309.9,118.7,309.7,119.3z"/>
		<path class="st0" d="M284.4,106.4c-0.8,0-1.5,0-2.3,0c-0.2,0-0.3,0.1-0.3,0.3c0,4.1,0,8.2,0,12.3c0,0-0.1,0-0.1,0
			c-2.4-4.1-4.8-8.2-7.2-12.3c-0.1-0.2-0.3-0.3-0.4-0.3c-0.8,0-1.6,0-2.4,0c-0.2,0-0.3,0.1-0.3,0.3c0,5.7,0,11.5,0,17.2
			c0,0.2,0.1,0.3,0.3,0.3c0.8,0,1.5,0,2.3,0c0.2,0,0.3-0.1,0.3-0.3c0-4.1,0-8.2,0-12.2c0,0,0.1,0,0.1,0c2.4,4.1,4.8,8.2,7.3,12.2
			c0.1,0.2,0.3,0.3,0.4,0.3c0.8,0,1.6,0,2.4,0c0.2,0,0.3-0.1,0.3-0.3c0-5.7,0-11.5,0-17.2C284.7,106.4,284.6,106.4,284.4,106.4z"/>
		<path class="st0" d="M256.2,106.4c-0.9,0-1.7,0-2.6,0c-0.2,0-0.3,0.1-0.3,0.3c0,2.3,0,4.7,0,7c0,0.1-0.1,0.2-0.2,0.2
			c-2.3,0-4.5,0-6.8,0c-0.1,0-0.2-0.1-0.2-0.2c0-2.3,0-4.7,0-7c0-0.2-0.1-0.3-0.3-0.3c-0.9,0-1.7,0-2.6,0c-0.2,0-0.3,0.1-0.3,0.3
			c0,5.7,0,11.5,0,17.2c0,0.2,0.1,0.3,0.3,0.3c0.9,0,1.7,0,2.6,0c0.2,0,0.3-0.1,0.3-0.3c0-2.4,0-4.8,0-7.2c0-0.1,0.1-0.2,0.2-0.2
			c2.3,0,4.5,0,6.8,0c0.1,0,0.2,0.1,0.2,0.2c0,2.4,0,4.8,0,7.2c0,0.2,0.1,0.3,0.3,0.3c0.9,0,1.7,0,2.6,0c0.2,0,0.3-0.1,0.3-0.3
			c0-5.7,0-11.5,0-17.2C256.5,106.4,256.4,106.4,256.2,106.4z"/>
		<path class="st0" d="M222.2,108.8c1.5,0,2.6,0.8,3.3,2.3c0.1,0.2,0.2,0.2,0.3,0.1c0.7-0.4,1.5-0.7,2.2-1.1
			c0.1-0.1,0.2-0.2,0.1-0.3c-0.5-1.2-1.3-2.1-2.3-2.8c-1-0.7-2.3-1-3.7-1c-1.5,0-2.8,0.4-3.9,1.1c-1.1,0.7-1.8,1.8-2.3,3.3
			c-0.3,0.9-0.5,2.5-0.5,4.8s0.2,3.9,0.5,4.8c0.5,1.4,1.2,2.5,2.3,3.3c1.1,0.7,2.4,1.1,3.9,1.1c1.4,0,2.6-0.3,3.7-1
			c1-0.7,1.8-1.6,2.3-2.8c0.1-0.2,0-0.3-0.1-0.3c-0.7-0.4-1.5-0.7-2.2-1.1c-0.2-0.1-0.3,0-0.3,0.1c-0.7,1.5-1.8,2.3-3.3,2.3
			c-1.6,0-2.6-0.8-3.2-2.4c-0.2-0.6-0.3-2-0.3-4.1s0.1-3.4,0.3-4C219.6,109.6,220.6,108.8,222.2,108.8z"/>
		<path class="st0" d="M200.3,106.4c-3.7,0-7.4,0-11.1,0c-0.2,0-0.3,0.1-0.3,0.3c0,5.7,0,11.5,0,17.2c0,0.2,0.1,0.3,0.3,0.3
			c3.7,0,7.4,0,11.1,0c0.2,0,0.3-0.1,0.3-0.3c0-0.7,0-1.5,0-2.2c0-0.2-0.1-0.3-0.3-0.3c-2.7,0-5.4,0-8.2,0c-0.1,0-0.2-0.1-0.2-0.2
			c0-1.5,0-3,0-4.5c0-0.1,0.1-0.2,0.2-0.2c2.3,0,4.6,0,6.9,0c0.2,0,0.3-0.1,0.3-0.3c0-0.7,0-1.5,0-2.2c0-0.2-0.1-0.3-0.3-0.3
			c-2.3,0-4.6,0-6.9,0c-0.1,0-0.2-0.1-0.2-0.2c0-1.4,0-2.9,0-4.3c0-0.1,0.1-0.2,0.2-0.2c2.7,0,5.4,0,8.2,0c0.2,0,0.3-0.1,0.3-0.3
			c0-0.7,0-1.5,0-2.2C200.6,106.4,200.5,106.4,200.3,106.4z"/>
		<path class="st0" d="M464.5,113.8c-0.3,0-0.6-0.1-0.9-0.1c-2.2-0.3-3.3-1.1-3.3-2.4c0-0.7,0.2-1.3,0.7-1.7
			c0.5-0.4,1.2-0.7,2.1-0.7c1.4,0,2.8,0.5,4.3,1.4c0.1,0.1,0.3,0.1,0.4-0.1c0.4-0.6,0.8-1.3,1.3-1.9c0.1-0.1,0.1-0.3-0.1-0.4
			c-1.6-1.2-3.5-1.8-5.7-1.8c-1.8,0-3.3,0.5-4.4,1.5c-1.1,1-1.6,2.3-1.6,3.9c0,2.9,1.8,4.6,5.4,5.1c0.3,0,0.6,0.1,0.9,0.1
			c1.2,0.2,2,0.4,2.5,0.8c0.5,0.4,0.7,0.9,0.7,1.6c0,0.8-0.3,1.4-0.9,1.9c-0.6,0.5-1.4,0.7-2.5,0.7c-1.6,0-3.3-0.6-4.8-1.9
			c-0.1-0.1-0.2-0.1-0.4,0c-0.5,0.6-1.1,1.3-1.6,1.9c-0.1,0.1-0.1,0.3,0.1,0.4c0.7,0.7,1.7,1.2,2.8,1.7c1.2,0.4,2.4,0.7,3.7,0.7
			c2.1,0,3.8-0.5,5-1.5c1.2-1,1.7-2.3,1.7-4C469.8,116,468.1,114.2,464.5,113.8z"/>
		<path class="st0" d="M173.7,106.4c-4.2,0-8.5,0-12.7,0c-0.2,0-0.3,0.1-0.3,0.3c0,0.7,0,1.5,0,2.2c0,0.2,0.1,0.3,0.3,0.3
			c1.5,0,3.1,0,4.7,0c0.1,0,0.2,0.1,0.2,0.2c0,4.9,0,9.7,0,14.6c0,0.2,0.1,0.3,0.3,0.3c0.9,0,1.7,0,2.6,0c0.2,0,0.3-0.1,0.3-0.3
			c0-4.9,0-9.7,0-14.6c0-0.1,0.1-0.2,0.2-0.2c1.5,0,3.1,0,4.7,0c0.2,0,0.3-0.1,0.3-0.3c0-0.7,0-1.5,0-2.2
			C173.9,106.4,173.9,106.4,173.7,106.4z"/>
		<path class="st0" d="M564.6,0l-51.3,29.6v59.2l51.3,29.6l51.3-29.6V29.6L564.6,0z M584,61.2c0.6,1.6,1.9,2.9,3.5,3.4
			c1.1,0.4,1.3,0.2,2.5,0.3c0.9,0.1,1.7,0.3,2.4,0.6c3.2,1.3,5.4,4.4,5.5,7.8c0.1,3.5-1.9,6.7-5,8.1c-3.2,1.5-6.9,0.9-9.5-1.4
			c-0.6-0.6-1.2-1.2-1.6-1.9c-0.5-0.8-0.8-1.3-1.6-1.9c-1.4-1-3.1-1.4-4.8-0.9c-3.5,1-5.1,5-3.3,8.1c1.7,3,1.5,6.7-0.5,9.5
			c-2,2.8-5.6,4.1-8.9,3.3c-3.4-0.8-6-3.5-6.7-6.9c-0.3-1.7-0.1-3.4,0.5-5c0.2-0.4,0.4-0.7,0.6-1.1c0.2-0.4,0.4-0.8,0.5-1.2
			c0.2-0.9,0.3-1.6,0.1-2.5c-0.7-3.6-4.5-5.5-7.8-4c-0.8,0.4-1.4,0.9-2,1.6c-0.3,0.3-0.5,0.7-0.7,1c-0.2,0.3-0.5,0.7-0.7,1
			c-1.1,1.3-2.6,2.2-4.3,2.7c-3.3,0.9-6.9-0.2-9.1-2.9c-2.2-2.7-2.6-6.4-1-9.5c0.8-1.5,2-2.7,3.4-3.6c0.8-0.4,1.5-0.7,2.4-0.9
			c0.4-0.1,0.8-0.2,1.2-0.2c0.4,0,0.8,0,1.2-0.1c3.6-0.3,5.9-4,4.7-7.4c-0.6-1.6-1.9-2.9-3.5-3.4c-1.1-0.4-1.3-0.2-2.5-0.3
			c-0.9-0.1-1.7-0.3-2.4-0.6c-3.2-1.3-5.4-4.4-5.5-7.8c-0.1-3.5,1.9-6.7,5-8.1c3.2-1.5,6.9-0.9,9.5,1.4c0.6,0.6,1.2,1.2,1.6,1.9
			c0.5,0.8,0.8,1.3,1.5,1.9c1.4,1.1,3.2,1.4,4.9,1c3.5-1,5-5,3.3-8.1c-1.7-3-1.5-6.7,0.5-9.5c2.1-2.8,5.6-4.1,8.9-3.3
			c3.4,0.8,6,3.5,6.6,6.9c0.3,1.7,0.1,3.4-0.5,5c-0.3,0.7-0.8,1.4-1,2.2c-0.3,0.9-0.3,1.7-0.1,2.6c0.7,3.6,4.6,5.6,7.8,4
			c0.8-0.4,1.4-0.9,2-1.6c0.2-0.3,0.4-0.7,0.6-1c0.2-0.3,0.5-0.7,0.7-1c1.1-1.3,2.6-2.2,4.3-2.7c3.3-0.9,6.9,0.2,9.1,2.9
			c2.2,2.7,2.6,6.4,1,9.5c-0.8,1.5-2,2.7-3.4,3.6c-0.8,0.4-1.5,0.7-2.4,0.9c-0.4,0.1-0.8,0.2-1.2,0.2c-0.4,0-0.8,0-1.2,0.1
			C585.1,54.1,582.8,57.7,584,61.2z"/>
		<path class="st0" d="M210.5,67L210.5,67c-0.4-0.9-0.8-1.7-1.3-2.5c-0.5-0.7-1.1-1.5-1.8-2.3c-0.6-0.6-1.2-1.2-1.9-1.8
			c-0.7-0.6-1.4-1.1-2.2-1.6c-1.6-1-3.2-1.9-5-2.6c-1.8-0.7-3.8-1.2-6-1.7c-1.8-0.3-3.5-0.6-5.4-0.8l-0.1,0c-1.8-0.3-3.3-0.6-4.7-1
			c-1.2-0.3-2.3-0.7-3.2-1.2c-0.9-0.5-1.7-1-2.4-1.6c-0.6-0.5-1.1-1.1-1.4-1.6c-0.1-0.2-0.2-0.4-0.3-0.5c-0.1-0.2-0.2-0.5-0.2-0.7
			c-0.2-0.5-0.3-1.1-0.3-1.7c-0.1-0.6-0.1-1.2-0.1-1.9c0-0.4,0-0.8,0.1-1.2c0.1-0.8,0.2-1.5,0.5-2.2c0.2-0.7,0.5-1.4,0.9-2.1
			c0.4-0.7,0.9-1.4,1.5-2c0.3-0.3,0.6-0.6,0.9-0.8c0.4-0.3,0.9-0.6,1.5-0.9c1.2-0.6,2.6-1,4.2-1.2c1.7-0.3,3.5-0.3,5.5-0.2
			c0.4,0,0.8,0.1,1.2,0.1c2.8,0.4,4,0.7,4.8,0.9c0.9,0.3,1.5,0.5,2.1,0.8c0.7,0.3,1.5,0.8,5.6,3l1.5,0.8l4.9-9.2l-3.8-2.1
			c-2-1.1-4.1-2-6.1-2.7c-2.7-0.9-5.7-1.6-8.8-2c-3.9-0.5-7.4-0.4-10.7,0.2c-3.7,0.7-6.9,2-9.4,3.9c-1.9,1.4-3.5,3.2-4.8,5.3
			c-1.1,1.8-1.9,3.6-2.5,5.6c-0.5,1.8-0.8,3.7-0.8,5.8c0,3.7,0.7,7,2.2,9.7c2.9,5.3,8.4,7.9,11.5,8.9c2.6,0.9,5,1.3,7.9,1.7l0.4,0.1
			c0.7,0.1,1.3,0.2,2,0.4l0.7,0.1c2.6,0.4,4.4,0.9,6,1.5c1.5,0.6,2.8,1.3,4,2.2c1,0.8,1.8,1.6,2.2,2.4c0.4,0.7,0.6,1.6,0.8,2.7
			c0.3,2,0.1,3.8-0.4,5.4c-0.4,1.3-1.2,2.6-2.2,3.6c-1.2,1.3-2.8,2.3-4.7,3c-1.6,0.6-3.5,1-5.7,1.1c-2.2,0.2-4.1,0.1-5.8-0.1
			c-2.5-0.5-4.2-1-5.9-1.7c-1.2-0.6-2.6-1.3-4.1-2.2c-1.2-0.7-2.1-1.4-4.5-3.1l-1.2-0.9l-6,8.5l3.5,2.5c1.2,0.8,2.4,1.6,3.5,2.2
			c1.3,0.7,2.6,1.4,3.9,1.9c1.3,0.6,2.8,1.1,4.4,1.7c1.9,0.6,3.6,1,5.3,1.3c1.8,0.3,3.7,0.4,5.5,0.4l0.5,0c0.9,0,1.9-0.1,3-0.1
			c1.1-0.1,2.1-0.2,3-0.4c2.3-0.4,4.5-1,6.5-1.8c2.4-1,4.5-2.4,6.4-4.1c1.7-1.5,3.1-3.3,4.1-5.2c0.5-1,1-2,1.3-2.9
			c0.4-1.2,0.7-2.4,0.9-3.7c0.3-2.3,0.3-4.7,0-7.1C211.4,69.8,211,68.4,210.5,67z"/>
		<path class="st0" d="M135.2,64c0.8-0.3,1.6-0.7,2.4-1.1c1.6-0.9,3-1.9,4.3-3.1c4.6-4.2,7.2-10.7,6.6-17
			c-0.6-6.2-3.9-11.8-9.2-15.4c-2.2-1.5-4.6-2.5-7.2-3.2c-1.8-0.5-3.7-0.7-6-0.7h-21.7l-4.7,0l-0.9,1.1l0.1,0.6v68.5l-0.1,0.6
			l0.9,1.1l7.9,0l0.7,0l0.9-0.9V74c0-1.4,0-2.2,0.5-3.4c1-2.7,3.5-4.6,6.3-4.8c0.5,0,3.3,0,4.2,0l4.1,0l14.8,29.7l10.2,0l0.7-1.9
			l-0.6-0.5L135.2,64z M124.9,55.3l-7.3,0l-0.3,0c-0.9,0-1.4,0-2.3-0.2c-0.9-0.2-1.6-0.5-2.3-1c-1.5-0.9-2.6-2.4-3.1-4.1
			c-0.2-0.7-0.3-1.5-0.3-2.5V33.9h17.1c1.9,0,3.6,0.4,5.3,1.2c1.7,0.8,3.2,1.9,4.3,3.2c2.3,2.8,2.9,6.7,1.5,10
			c-1.3,3.2-4.3,5.7-8,6.6C127.8,55.3,126.6,55.3,124.9,55.3z"/>
		<path class="st0" d="M276.6,95.5l1.1-0.9V25.5l0-1.1l-1.1-0.9l-0.6,0.1l-7.9,0l-0.4,0.5c-0.2,0.2-0.4,0.6-0.4,1.2v21.2
			c0,3.1-1.9,5.8-4.8,7c-1.4,0.5-2.3,0.5-3.8,0.5l-14.1,0c-0.8,0-1.5,0-2.2-0.2c-3-0.7-5.3-3.2-5.8-6.2c-0.1-0.7-0.1-1.4-0.1-2.1
			l0-19.5l-0.1-2.4h-8.4l-0.8-0.1l-1.1,0.9v69.2l0,1.1l1.2,0.9l0.6-0.1l7.8,0l0.4-0.5c0.2-0.2,0.4-0.6,0.4-1.2V72.5
			c0-3.1,1.9-5.8,4.8-7c1.4-0.5,2.3-0.5,3.8-0.5l14.1,0c0.8,0,1.5,0,2.2,0.2c3,0.7,5.3,3.2,5.8,6.2c0.1,0.7,0.1,1.4,0.1,2.1l0,20.2
			c-0.1,0.6,0.2,1,0.4,1.2l0.5,0.5h7.6L276.6,95.5z"/>
		<path class="st0" d="M435.4,39.1c1-2.9,3.7-5,6.8-5.1c0.6,0,1.2,0,1.7,0l24.5,0l1.3,0l1-0.9l0-8.8l-1.3-0.9l-0.5,0.2h-42.4l-1.1,0
			l-0.4,0.5c-0.2,0.2-0.4,0.6-0.4,1.2v68.4l-0.2,0.5l0.4,0.6l0.5,0.6h43.4l0.6,0.2l1.2-0.9l0-8.9l-1.2-0.9l-0.5,0.1h-26.4
			c-3.1,0-5.8-1.9-7-4.8c-0.5-1.4-0.5-2.3-0.5-3.8l0-0.8l0-3c0-0.7,0-1.3,0.1-1.9c0.5-3.1,2.8-5.5,5.9-6.2c0.7-0.1,1.4-0.2,2.2-0.2
			l21.4,0l0.9-0.9l0-8.6l-0.5-0.4c-0.3-0.3-0.7-0.4-1.2-0.4L445,54c-0.8,0-2.7,0-3.2,0c-3.1-0.3-5.7-2.5-6.5-5.5
			c-0.2-0.6-0.3-1.3-0.3-2.1l0-3.5c0-0.6,0-1.2,0-1.7C435,40.4,435.2,39.7,435.4,39.1z"/>
		<path class="st0" d="M409.9,56.6l0-1.9c0-1.2,0-2.5-0.1-3.7l0-0.4c0-0.9-0.1-1.8-0.1-2.6c-0.1-1.9-0.4-3.6-0.8-5.3
			c-0.4-1.9-0.9-3.7-1.6-5.3c-0.6-1.6-1.4-3-2.3-4.3c-0.7-1-1.4-2-2.2-2.8c-1-1-2.1-1.9-3.4-2.7c-1.2-0.8-2.5-1.5-3.7-2
			c-1-0.4-2-0.7-3-1c-1.1-0.3-2.2-0.5-3.2-0.7c-1.2-0.2-2.4-0.3-3.6-0.3h-27v71.9h1.5l26,0c1.1,0,2.3-0.2,3.3-0.3
			c1.7-0.3,3.5-0.7,5.1-1.3c1.8-0.6,3.4-1.4,4.7-2.3c1.5-1,2.8-2.1,4-3.5l0.2-0.3c0.9-1.2,1.8-2.4,2.6-4c0.6-1.2,1.1-2.4,1.6-3.6
			c0.4-1.1,0.7-2.2,0.9-3.5c0.2-1.1,0.4-2.1,0.6-3.2c0.1-0.9,0.2-1.9,0.3-2.9l0.1-2.4c0-0.4,0-0.9,0-1.2c0-0.7,0-1.4,0-2.3
			L409.9,56.6z M399.5,65.2l-0.1,4.7c-0.1,1.4-0.2,2.7-0.5,4c-0.3,1.4-0.6,2.9-1.3,4.3c-1.5,3.2-3.2,4.8-6.3,5.9
			c-1.4,0.5-2.7,0.8-3.9,0.9c-0.6,0.1-1.2,0.1-1.8,0.1l-7.4,0c-1.8,0-3,0-4.7-0.8c-2.5-1.3-4.1-3.8-4.1-6.7V49l0-6.3
			c0-1.2,0-2.3,0.3-3.3c0.7-2.5,2.7-4.5,5.2-5.2c0.9-0.3,1.6-0.3,2.4-0.3c0.2,0,0.3,0,0.5,0l0.6,0l5.3,0c0.8,0,1.6,0,2.4,0
			c0.3,0,0.6,0,0.9,0c0.9,0.1,1.7,0.2,2.6,0.4c0.9,0.2,2,0.5,3.1,1.1c1.4,0.7,2.5,1.6,3.3,2.7c0.4,0.6,0.8,1.2,1.1,1.7
			c0.8,1.5,1.4,3.5,1.7,4.8c0.4,1.8,0.6,3.8,0.7,6.2c0.1,3.2,0.1,6.4,0.1,9.7c0,0.6,0,1.2,0,1.8C399.5,63.3,399.5,64.2,399.5,65.2z"
			/>
		<rect x="71.2" y="23.6" class="st0" width="10.4" height="71.9"/>
		<path class="st0" d="M35.5,23.6h-9.9L0.2,95.4h11l5.6-15.9h27.5L50,95.4h11L36.4,25.9L35.5,23.6z M20.5,69.1l8.3-23.4h3.6
			l8.3,23.4H20.5z"/>
		<path class="st0" d="M323.3,23.6h-9.9l-25.5,71.9h11l5.6-15.9h27.5l5.7,15.9h11l-24.7-69.5L323.3,23.6z M308.2,69.1l8.3-23.4h3.6
			l8.3,23.4H308.2z"/>
	</g>
</g>
</svg>
